<svg xmlns="http://www.w3.org/2000/svg" viewBox="0 0 400 300" width="400" height="300">
  <defs>
    <linearGradient id="bg" x1="0%" y1="0%" x2="100%" y2="100%">
      <stop offset="0%" style="stop-color:#84fab0"/>
      <stop offset="100%" style="stop-color:#8fd3f4"/>
    </linearGradient>
  </defs>
  <rect width="400" height="300" fill="url(#bg)"/>
  <!-- 하늘 -->
  <ellipse cx="200" cy="0" rx="250" ry="120" fill="rgba(255,255,255,0.15)"/>
  <!-- 구름 사다리 -->
  <rect x="190" y="20" width="20" height="200" fill="rgba(255,255,255,0.5)" rx="10"/>
  <rect x="160" y="60" width="80" height="12" fill="rgba(255,255,255,0.6)" rx="6"/>
  <rect x="160" y="100" width="80" height="12" fill="rgba(255,255,255,0.6)" rx="6"/>
  <rect x="160" y="140" width="80" height="12" fill="rgba(255,255,255,0.55)" rx="6"/>
  <rect x="160" y="180" width="80" height="12" fill="rgba(255,255,255,0.5)" rx="6"/>
  <!-- 선녀 실루엣 -->
  <circle cx="200" cy="42" r="14" fill="rgba(255,220,180,0.9)"/>
  <path d="M186 56 Q200 120 214 56" fill="rgba(100,180,255,0.8)"/>
  <!-- 날개옷 (천의) -->
  <path d="M186 70 Q160 90 150 120 Q170 110 186 90" fill="rgba(200,230,255,0.7)"/>
  <path d="M214 70 Q240 90 250 120 Q230 110 214 90" fill="rgba(200,230,255,0.7)"/>
  <!-- 나무꾼 실루엣 -->
  <circle cx="310" cy="210" r="12" fill="rgba(80,50,20,0.85)"/>
  <rect x="304" y="222" width="12" height="50" fill="rgba(80,50,20,0.8)" rx="5"/>
  <!-- 도끼 -->
  <rect x="316" y="230" width="5" height="30" fill="rgba(100,70,30,0.8)"/>
  <path d="M321 232 Q332 228 332 240 L321 240Z" fill="rgba(150,150,150,0.9)"/>
  <!-- 사슴 -->
  <ellipse cx="90" cy="240" rx="30" ry="18" fill="rgba(160,100,40,0.8)"/>
  <circle cx="78" cy="226" r="11" fill="rgba(160,100,40,0.8)"/>
  <line x1="74" y1="217" x2="70" y2="205" stroke="rgba(160,100,40,0.8)" stroke-width="4"/>
  <line x1="82" y1="216" x2="86" y2="204" stroke="rgba(160,100,40,0.8)" stroke-width="4"/>
  <!-- 별 -->
  <circle cx="40" cy="50" r="3" fill="rgba(255,255,200,0.9)"/>
  <circle cx="360" cy="30" r="4" fill="rgba(255,255,200,0.8)"/>
</svg>
